<?xml version="1.0" encoding="UTF-8"?>
<!DOCTYPE svg PUBLIC "-//W3C//DTD SVG 1.1//EN" "http://www.w3.org/Graphics/SVG/1.1/DTD/svg11.dtd">
<!-- Creator: CorelDRAW 2020 (64-Bit) -->
<svg xmlns="http://www.w3.org/2000/svg" xml:space="preserve" width="55.4176mm" height="58.7589mm" version="1.1" style="shape-rendering:geometricPrecision; text-rendering:geometricPrecision; image-rendering:optimizeQuality; fill-rule:evenodd; clip-rule:evenodd"
viewBox="0 0 5541.76 5875.89"
 xmlns:xlink="http://www.w3.org/1999/xlink"
 xmlns:xodm="http://www.corel.com/coreldraw/odm/2003">
 <defs>
  <style type="text/css">
   <![CDATA[
    .fil0 {fill:#05103D;fill-rule:nonzero}
    .fil1 {fill:#4A8CFF;fill-rule:nonzero}
    .fil2 {fill:#B15CFF;fill-rule:nonzero}
   ]]>
  </style>
 </defs>
 <g id="Layer_x0020_1">
  <metadata id="CorelCorpID_0Corel-Layer"/>
  <g id="_3181198009472">
   <g>
    <polygon class="fil0" points="633.61,5861.44 225.06,5361.32 225.06,5861.44 -0,5861.44 -0,4738.95 225.06,4738.95 225.06,5242.25 633.61,4738.95 905.37,4738.95 442.18,5295.35 918.25,5861.44 "/>
    <path class="fil0" d="M1604.96 5275.26c-21.49,-39.15 -50.45,-69.17 -86.8,-90.01 -36.52,-21.01 -75.67,-31.36 -117.51,-31.36 -41.77,0 -80.34,10.1 -115.78,30.52 -35.36,20.35 -63.99,50.14 -85.99,89.2 -21.98,39.21 -32.99,85.5 -32.99,139.16 0,53.59 11.01,100.43 32.99,140.72 22,40.21 50.86,70.98 86.82,92.47 35.94,21.43 74.25,32.1 114.95,32.1 41.84,0 80.99,-10.35 117.51,-31.35 36.35,-20.84 65.31,-50.87 86.8,-90.01 21.42,-39.15 32.17,-86.09 32.17,-140.72 0,-54.66 -10.75,-101.6 -32.17,-140.72zm-615.16 -102.16c35.96,-69.59 84.68,-123.25 146.39,-160.74 61.62,-37.52 130.46,-56.29 206.61,-56.29 66.46,0 124.65,13.38 174.45,40.12 49.89,26.82 89.85,60.64 119.88,101.34l0 -127.01 226.71 0 0 890.92 -226.71 0 0 -130.3c-28.96,41.84 -68.92,76.48 -119.88,103.71 -50.87,27.4 -109.55,41.03 -176.1,41.03 -74.99,0 -143.34,-19.28 -204.96,-57.94 -61.71,-38.47 -110.43,-92.96 -146.39,-163.18 -35.94,-70.18 -53.89,-150.91 -53.89,-241.99 0,-90.09 17.95,-169.93 53.89,-239.67z"/>
    <path class="fil0" d="M2156.53 5836.51c-57.92,-26.26 -103.78,-61.87 -137.51,-106.93 -33.82,-45.03 -52.29,-94.85 -55.57,-149.58l226.81 0c4.28,34.31 21.16,62.78 50.7,85.27 29.47,22.47 66.15,33.7 110.13,33.7 42.82,0 76.39,-8.51 100.51,-25.68 24.12,-17.14 36.19,-39.12 36.19,-65.96 0,-28.89 -14.77,-50.63 -44.24,-65.08 -29.45,-14.51 -76.38,-30.35 -140.72,-47.49 -66.45,-16.1 -120.85,-32.66 -163.21,-49.82 -42.4,-17.15 -78.85,-43.48 -109.36,-78.76 -30.61,-35.45 -45.8,-83.13 -45.8,-143.18 0,-49.31 14.21,-94.37 42.59,-135.07 28.4,-40.78 69.17,-72.94 122.18,-96.57 53.1,-23.57 115.53,-35.29 187.42,-35.29 106.09,0 190.77,26.49 254.04,79.5 63.33,53.1 98.13,124.74 104.62,214.75l-215.57 0c-3.21,-35.37 -17.98,-63.52 -44.15,-84.43 -26.32,-20.93 -61.45,-31.35 -105.36,-31.35 -40.77,0 -72.1,7.47 -94.11,22.56 -21.98,14.93 -32.98,35.87 -32.98,62.69 0,30.02 15.03,52.77 44.96,68.35 30.12,15.52 76.73,31.36 140,47.43 64.31,16.07 117.41,32.75 159.26,49.89 41.77,17.14 77.87,43.66 108.48,79.59 30.51,35.85 46.35,83.37 47.42,142.28 0,51.45 -14.21,97.55 -42.59,138.35 -28.39,40.7 -69.17,72.61 -122.27,95.66 -53.08,23.05 -114.95,34.54 -185.68,34.54 -72.94,0 -138.34,-13.12 -196.19,-39.37z"/>
    <path class="fil0" d="M3427 5275.26c-21.49,-39.15 -50.45,-69.17 -86.81,-90.01 -36.51,-21.01 -75.66,-31.36 -117.5,-31.36 -41.77,0 -80.34,10.1 -115.79,30.52 -35.35,20.35 -63.98,50.14 -85.99,89.2 -21.98,39.21 -32.98,85.5 -32.98,139.16 0,53.59 11,100.43 32.98,140.72 22.01,40.21 50.87,70.98 86.83,92.47 35.94,21.43 74.24,32.1 114.95,32.1 41.84,0 80.99,-10.35 117.5,-31.35 36.36,-20.84 65.32,-50.87 86.81,-90.01 21.42,-39.15 32.17,-86.09 32.17,-140.72 0,-54.66 -10.75,-101.6 -32.17,-140.72zm-615.16 -102.16c35.96,-69.59 84.68,-123.25 146.39,-160.74 61.61,-37.52 130.46,-56.29 206.61,-56.29 66.45,0 124.65,13.38 174.45,40.12 49.89,26.82 89.85,60.64 119.88,101.34l0 -127.01 226.7 0 0 890.92 -226.7 0 0 -130.3c-28.96,41.84 -68.92,76.48 -119.88,103.71 -50.87,27.4 -109.55,41.03 -176.1,41.03 -74.99,0 -143.35,-19.28 -204.96,-57.94 -61.71,-38.47 -110.43,-92.96 -146.39,-163.18 -35.94,-70.18 -53.89,-150.91 -53.89,-241.99 0,-90.09 17.95,-169.93 53.89,-239.67z"/>
    <polygon class="fil0" points="4361.39,5861.44 4059.02,5481.94 4059.02,5861.44 3833.87,5861.44 3833.87,4671.4 4059.02,4671.4 4059.02,5348.43 4358.18,4970.49 4650.79,4970.49 4258.49,5417.61 4654.06,5861.44 "/>
    <path class="fil0" d="M5541.76 4970.52l0 890.92 -226.74 0 0 -112.58c-29.05,38.66 -66.77,68.92 -113.39,90.83 -46.68,22 -97.31,32.98 -151.97,32.98 -69.73,0 -131.37,-14.67 -185.03,-44.21 -53.57,-29.47 -95.66,-72.87 -126.18,-130.23 -30.54,-57.36 -45.8,-125.69 -45.8,-205.06l0 -522.65 225.15 0 0 490.51c0,70.73 17.66,125.21 53.1,163.19 35.29,38.07 83.53,57.03 144.65,57.03 62.2,0 110.95,-18.96 146.4,-57.03 35.35,-37.98 53.07,-92.46 53.07,-163.19l0 -490.51 226.74 0z"/>
   </g>
   <g>
    <path class="fil1" d="M2164.84 1036.85c-381.77,454.5 -1028.28,1207.81 -1113.52,2136.15l0 -2750.89c0,-457.85 628.36,-587.41 807.9,-166.98 112.48,262.48 209.05,526.05 305.62,781.72z"/>
    <path class="fil1" d="M4266.95 3528.68c-88.62,769.25 -1222.59,1023.77 -2072.57,-618.09 122.74,-261.33 313.6,-488.62 534.08,-687.44 261.33,380.63 614.73,666.93 1158.99,793.11 236.31,54.5 406.73,272.67 379.5,512.42z"/>
    <path class="fil2" d="M4483.98 840.28c-56.78,380.64 -1054.47,747.67 -1755.52,1382.85 -220.48,198.82 -411.34,426.08 -534.08,687.42 -137.43,289.74 -190.86,622.71 -109.06,1011.3 69.34,131.79 10.19,297.69 -127.25,356.77 -388.28,169.51 -697.54,-8.21 -841.11,-355.54 -47.85,-115.69 -65.66,-241.56 -65.66,-366.77l0 -383.26c85.26,-928.34 731.75,-1681.68 1113.54,-2136.16 453.41,-540.89 995.37,-882.89 1683.96,-892.01 376.14,-5.65 690.88,322.72 635.18,695.4z"/>
   </g>
  </g>
 </g>
</svg>
